<?xml version="1.0" encoding="UTF-8" standalone="no"?>
<!-- Created with Inkscape (http://www.inkscape.org/) -->

<svg
   xmlns:dc="http://purl.org/dc/elements/1.1/"
   xmlns:cc="http://creativecommons.org/ns#"
   xmlns:rdf="http://www.w3.org/1999/02/22-rdf-syntax-ns#"
   xmlns:svg="http://www.w3.org/2000/svg"
   xmlns="http://www.w3.org/2000/svg"
   version="1.1"
   width="172.65565"
   height="169.87466"
   id="svg2"
   xml:space="preserve"><metadata
     id="metadata8"><rdf:RDF><cc:Work
         rdf:about=""><dc:format>image/svg+xml</dc:format><dc:type
           rdf:resource="http://purl.org/dc/dcmitype/StillImage" /><dc:title></dc:title></cc:Work></rdf:RDF></metadata><defs
     id="defs6"><clipPath
       id="clipPath18"><path
         d="m 0,167.24 249.45,0 L 249.45,0 0,0 0,167.24 z"
         id="path20" /></clipPath><clipPath
       id="clipPath24"><path
         d="M 0,0 249,0 249,167 0,167 0,0 z"
         id="path26" /></clipPath><clipPath
       id="clipPath52"><path
         d="m 0,167.24 249.45,0 L 249.45,0 0,0 0,167.24 z"
         id="path54" /></clipPath><clipPath
       id="clipPath58"><path
         d="M 0,0 249,0 249,167 0,167 0,0 z"
         id="path60" /></clipPath></defs><g
     transform="matrix(1.25,0,0,-1.25,-68.614963,189.85025)"
     id="g10"><g
       id="g12" /><g
       id="g14"><g
         clip-path="url(#clipPath18)"
         id="g16"><g
           clip-path="url(#clipPath24)"
           id="g22"><path
             d="m 91.3994,108.9219 c -0.483,-5.822 -1.45,-17.469 -1.45,-17.469 l -0.006,-9.859 c 0,-0.443 0.209,-1.091 0.469,-1.447 l 19.285,-26.599 c 0.518,-0.716 1.656,-1.3 2.538,-1.306 l 9.685,-0.055 -0.039,61.889 c -0.004,6.809 -29.774,3.375 -30.482,-5.154"
             id="path28"
             style="fill:#c2a898;fill-opacity:1;fill-rule:nonzero;stroke:none" /><path
             d="m 151.335,107.8848 1.364,-16.432 0.006,-9.859 c 0,-0.442 -0.209,-1.091 -0.468,-1.447 l -19.286,-26.599 c -0.517,-0.716 -1.656,-1.301 -2.538,-1.306 l -8.71,-0.055 c 0,0 0.027,41.089 0.039,61.633 0.005,6.894 28.857,2.94 29.593,-5.935"
             id="path30"
             style="fill:#b49c8d;fill-opacity:1;fill-rule:nonzero;stroke:none" /><path
             d="m 118.6953,30.1016 c 0,0 -0.552,-1.382 -0.773,-0.719 -0.461,1.377 -1.92,9.64 -1.92,9.64 0,0 -0.522,-2.342 -1.051,-0.759 l -4.631,15.851 c -0.2,0.594 -0.073,1.409 0.303,1.763 0,0 2.054,3.111 10.771,3.111 8.718,0 11.465,-3.184 11.465,-3.184 0.385,-0.339 0.533,-1.099 0.335,-1.691 0,0 -3.192,-11.546 -4.686,-16.009 -0.329,-0.984 -1.239,0.087 -1.239,0.087 0,0 -0.48,-5.231 -0.906,-6.505 -0.371,-1.108 -1.656,0.739 -1.656,0.739 l -2.715,-13.356 c -0.131,-0.639 -0.363,-0.649 -0.52,-0.026 l -2.777,11.058 z"
             id="path32"
             style="fill:#373233;fill-opacity:1;fill-rule:nonzero;stroke:none" /><path
             d="m 143.0771,119.5371 2.26,3.078 -2.532,0.167 -0.089,1.621 -2.607,-2.287 1.707,3.069 -1.957,-0.973 -0.232,2.003 -3.844,-7.97 c 0,0 4.303,-5.327 6.439,-1.231 0.604,1.16 4.307,2.531 4.307,2.531 l -3.452,-0.008 z"
             id="path34"
             style="fill:#373335;fill-opacity:1;fill-rule:nonzero;stroke:none" /><path
             d="m 97.29,117.7734 c -0.802,6.545 -12.108,14.094 -12.108,14.094 0,0 11.867,2.404 22.105,-3 0.38,4.039 -9.254,13.467 -9.254,13.467 0,0 16.389,-0.061 22.772,-11.007 -1.045,5.399 -7.149,11.794 -7.149,11.794 0,0 18.54,0.548 26.186,-21.546 8.459,-5.046 13.975,-12.797 13.975,-19.457 0,-17.833 -0.765,-20.015 -2.102,-18.345 -0.323,0.404 0.965,17.091 -1.531,20.818 -2.336,2.863 -5.35,7.002 -9.521,8.059 -5.474,1.385 -12.113,-1.508 -18.837,-1.853 l 0,-0.033 c -0.209,0 -0.418,0.003 -0.627,0.009 -0.209,-0.006 -0.418,-0.009 -0.627,-0.009 l 0,0.033 c -6.724,0.345 -13.364,3.238 -18.837,1.853 -4.172,-1.057 -7.184,-5.196 -9.52,-8.059 -2.496,-3.727 -1.209,-20.414 -1.532,-20.818 -1.336,-1.67 -2.102,0.512 -2.102,18.345 0,5.151 3.3,10.955 8.709,15.655"
             id="path36"
             style="fill:#383234;fill-opacity:1;fill-rule:nonzero;stroke:none" /><path
             d="m 104.3145,120.7769 0.055,-6.346 -9.716,1.798 1.999,1.074 -3.742,0.851 11.404,2.623 z"
             id="path38"
             style="fill:#373335;fill-opacity:1;fill-rule:nonzero;stroke:none" /><path
             d="m 147.9258,64.2744 0.074,-0.368"
             id="path40"
             style="fill:#373233;fill-opacity:1;fill-rule:nonzero;stroke:none" /><path
             d="m 160.75,70.1152 c -16.67,1.25 -13.166,1.375 -16.666,1.541 -3.834,0.385 -1.959,-0.104 -5.941,0.22 l -5.705,-0.231 c -2.473,0.531 -4.051,1.875 -4.891,2.504 -0.842,0.631 -1.262,1.592 -1.262,2.885 0,0 0,1.014 -2.832,1.014 -2.831,0 -0.703,-8.838 0.065,-7.372 0.734,-1.466 1.758,-2.562 3.074,-3.287 1.313,-0.723 2.82,-1.086 4.517,-1.086 l -0.312,0.338 c 0,0 2.004,-0.338 2.305,-0.338 0.33,0 -0.064,0.338 -0.064,0.338 l 3.044,-0.338 c 0.441,0 -0.134,0.297 -0.134,0.297 0,0 4.719,0.07 5.636,-0.277 l 5.416,0.083 -0.5,0.459 6.205,-0.067 0,0.442 6.045,-0.375 c 0,0 3.937,-0.188 9.975,2.25 0.348,0.141 0,0.875 0,0.875 l -7.975,0.125 z"
             id="path42"
             style="fill:#373233;fill-opacity:1;fill-rule:nonzero;stroke:none" /><path
             d="m 119.9531,78.0479 c -2.831,0 -2.831,-1.014 -2.831,-1.014 0,-1.293 -0.42,-2.254 -1.261,-2.884 -0.842,-0.629 -2.029,-0.946 -3.564,-0.946 l -4.971,0 c -2.793,0 -5.164,-0.647 -7.115,-1.95 -1.952,-1.299 -3.376,-3.485 -4.276,-6.559 l 0.614,-1.806 0.467,1.008 0.339,-1.963 2.491,2.086 0.402,-0.813 c 0.364,0.887 1.998,2.581 2.799,3.055 0.238,0.142 -0.555,-0.751 -0.278,-0.644 0.918,0.347 4.69,0.983 4.69,0.983 0,0 -0.574,-0.297 -0.133,-0.297 l 3.043,0.338 c 0,0 -0.393,-0.338 -0.063,-0.338 0.3,0 2.304,0.338 2.304,0.338 l -0.313,-0.338 c 1.699,0 3.205,0.362 4.519,1.086 1.315,0.724 2.339,1.82 3.075,3.286 0.766,-1.466 2.894,7.372 0.062,7.372"
             id="path44"
             style="fill:#373233;fill-opacity:1;fill-rule:nonzero;stroke:none" /><path
             d="m 292.2,61.754 -116.286,0 0,3.993 116.286,0 0,-3.993 z"
             id="path46"
             style="fill:#ead0b7;fill-opacity:1;fill-rule:nonzero;stroke:none" /></g></g></g><g
       id="g48"><g
         clip-path="url(#clipPath52)"
         id="g50"><g
           clip-path="url(#clipPath58)"
           id="g56"><path
             d="m 185.9238,74.0615 c 1.424,1.82 1.566,5.069 1.042,7.204 -0.524,2.133 -2.58,2.824 -3.363,2.014 -0.783,-0.812 -0.368,-1.326 1.492,-3.123 0.732,-3.081 -0.816,-4.763 -1.192,-5.116 -0.849,4.164 -2.919,6.155 -6.382,7.245 -4.28,1.346 -3.723,-0.858 -3.261,-1.304 0.463,-0.445 4.641,-0.652 6.417,-4.778 0.242,-0.562 0.42,-1.026 0.546,-1.408 -1.225,1.596 -4.722,3.031 -7.862,2.533 -1.327,-0.212 -2.589,-0.769 -3.588,-1.804 -1.112,-1.15 -2.064,-3.315 -2.238,-4.01 -0.386,-1.553 1.071,-1.996 1.552,-1.498 0.379,0.393 0.714,1.85 1.62,3.067 0.756,1.015 2.047,1.841 2.79,1.979 0.873,0.16 3.565,-0.775 4.953,-2.229 1.204,-1.258 1.984,-2.924 -0.107,-5.089 -2.159,-2.238 -3.905,-3.206 -5.373,-3.383 -0.91,-0.109 -2.311,-0.062 -3.021,0.573 -0.531,0.474 -0.957,3.025 -1.298,3.599 -0.321,0.535 -1.35,0.496 -1.688,0.011 -0.551,-0.79 -0.133,-3.514 -0.133,-3.514 0,0 0.647,-2.242 1.394,-2.786 0.596,-0.435 0.833,-0.804 2.341,-1.301 1.506,-0.495 3.862,-0.162 6.93,2.012 0.291,0.205 0.574,0.453 0.845,0.734 1.289,0.48 6.253,2.688 5.963,8.031 -0.008,0.153 -0.017,0.302 -0.026,0.449 0.513,0.539 1.099,1.192 1.647,1.892"
             id="path62"
             style="fill:#ead0b7;fill-opacity:1;fill-rule:nonzero;stroke:none" /></g></g></g></g></svg>